<?xml version="1.0" encoding="UTF-8" standalone="no"?>
<!-- Created with Inkscape (http://www.inkscape.org/) -->

<svg
   version="1.1"
   id="svg1"
   width="794.66669"
   height="1113.3333"
   viewBox="0 0 794.66669 1113.3333"
   sodipodi:docname="wheel_diag_kassa_sangban.svg"
   inkscape:version="1.3 (0e150ed, 2023-07-21)"
   xmlns:inkscape="http://www.inkscape.org/namespaces/inkscape"
   xmlns:sodipodi="http://sodipodi.sourceforge.net/DTD/sodipodi-0.dtd"
   xmlns="http://www.w3.org/2000/svg"
   xmlns:svg="http://www.w3.org/2000/svg">
  <defs
     id="defs1">
    <clipPath
       clipPathUnits="userSpaceOnUse"
       id="clipPath5">
      <path
         d="M 0,835 H 596 V 0 H 0 Z"
         transform="translate(-301.01171,-548.21481)"
         id="path5" />
    </clipPath>
    <clipPath
       clipPathUnits="userSpaceOnUse"
       id="clipPath7">
      <path
         d="M 0,835 H 596 V 0 H 0 Z"
         transform="translate(-79.878902,-543.25781)"
         id="path7" />
    </clipPath>
    <clipPath
       clipPathUnits="userSpaceOnUse"
       id="clipPath9">
      <path
         d="M 0,835 H 596 V 0 H 0 Z"
         transform="translate(-385.63281,-747.55622)"
         id="path9" />
    </clipPath>
    <clipPath
       clipPathUnits="userSpaceOnUse"
       id="clipPath11">
      <path
         d="M 0,835 H 596 V 0 H 0 Z"
         transform="translate(-382.19821,-739.26322)"
         id="path11" />
    </clipPath>
    <clipPath
       clipPathUnits="userSpaceOnUse"
       id="clipPath13">
      <path
         d="M 0,835 H 596 V 0 H 0 Z"
         transform="translate(-217.53561,-341.73191)"
         id="path13" />
    </clipPath>
    <clipPath
       clipPathUnits="userSpaceOnUse"
       id="clipPath15">
      <path
         d="M 0,835 H 596 V 0 H 0 Z"
         transform="translate(-457.37211,-699.62061)"
         id="path15" />
    </clipPath>
    <clipPath
       clipPathUnits="userSpaceOnUse"
       id="clipPath17">
      <path
         d="M 0,835 H 596 V 0 H 0 Z"
         transform="translate(-451.02541,-693.27342)"
         id="path17" />
    </clipPath>
    <clipPath
       clipPathUnits="userSpaceOnUse"
       id="clipPath19">
      <path
         d="M 0,835 H 596 V 0 H 0 Z"
         transform="translate(-146.76861,-389.01711)"
         id="path19" />
    </clipPath>
    <clipPath
       clipPathUnits="userSpaceOnUse"
       id="clipPath21">
      <path
         d="M 0,835 H 596 V 0 H 0 Z"
         transform="translate(-505.30762,-627.88131)"
         id="path21" />
    </clipPath>
    <clipPath
       clipPathUnits="userSpaceOnUse"
       id="clipPath23">
      <path
         d="M 0,835 H 596 V 0 H 0 Z"
         transform="translate(-497.01461,-624.44631)"
         id="path23" />
    </clipPath>
    <clipPath
       clipPathUnits="userSpaceOnUse"
       id="clipPath25">
      <path
         d="M 0,835 H 596 V 0 H 0 Z"
         transform="translate(-99.4834,-459.78321)"
         id="path25" />
    </clipPath>
    <clipPath
       clipPathUnits="userSpaceOnUse"
       id="clipPath27">
      <path
         d="M 0,835 H 596 V 0 H 0 Z"
         transform="translate(-505.30762,-458.63531)"
         id="path27" />
    </clipPath>
    <clipPath
       clipPathUnits="userSpaceOnUse"
       id="clipPath29">
      <path
         d="M 0,835 H 596 V 0 H 0 Z"
         transform="translate(-497.01461,-462.07031)"
         id="path29" />
    </clipPath>
    <clipPath
       clipPathUnits="userSpaceOnUse"
       id="clipPath31">
      <path
         d="M 0,835 H 596 V 0 H 0 Z"
         transform="translate(-99.4834,-626.73291)"
         id="path31" />
    </clipPath>
    <clipPath
       clipPathUnits="userSpaceOnUse"
       id="clipPath33">
      <path
         d="M 0,835 H 596 V 0 H 0 Z"
         transform="translate(-457.37211,-386.89601)"
         id="path33" />
    </clipPath>
    <clipPath
       clipPathUnits="userSpaceOnUse"
       id="clipPath35">
      <path
         d="M 0,835 H 596 V 0 H 0 Z"
         transform="translate(-451.02541,-393.24321)"
         id="path35" />
    </clipPath>
    <clipPath
       clipPathUnits="userSpaceOnUse"
       id="clipPath37">
      <path
         d="M 0,835 H 596 V 0 H 0 Z"
         transform="translate(-146.76861,-697.49901)"
         id="path37" />
    </clipPath>
    <clipPath
       clipPathUnits="userSpaceOnUse"
       id="clipPath39">
      <path
         d="M 0,835 H 596 V 0 H 0 Z"
         transform="translate(-385.63281,-338.96041)"
         id="path39" />
    </clipPath>
    <clipPath
       clipPathUnits="userSpaceOnUse"
       id="clipPath41">
      <path
         d="M 0,835 H 596 V 0 H 0 Z"
         transform="translate(-382.19821,-347.25341)"
         id="path41" />
    </clipPath>
    <clipPath
       clipPathUnits="userSpaceOnUse"
       id="clipPath43">
      <path
         d="M 0,835 H 596 V 0 H 0 Z"
         transform="translate(-217.53471,-744.78472)"
         id="path43" />
    </clipPath>
    <clipPath
       clipPathUnits="userSpaceOnUse"
       id="clipPath45">
      <path
         d="M 0,835 H 596 V 0 H 0 Z"
         transform="translate(-449.34671,-728.09182)"
         id="path45" />
    </clipPath>
    <clipPath
       clipPathUnits="userSpaceOnUse"
       id="clipPath47">
      <path
         d="M 0,835 H 596 V 0 H 0 Z"
         transform="translate(-492.64941,-684.79251)"
         id="path47" />
    </clipPath>
    <clipPath
       clipPathUnits="userSpaceOnUse"
       id="clipPath49">
      <path
         d="M 0,835 H 596 V 0 H 0 Z"
         transform="translate(0,-2.5000001e-5)"
         id="path49" />
    </clipPath>
    <clipPath
       clipPathUnits="userSpaceOnUse"
       id="clipPath51">
      <path
         d="M 0,835 H 596 V 0 H 0 Z"
         transform="translate(-300.48731,-722.95312)"
         id="path51" />
    </clipPath>
    <clipPath
       clipPathUnits="userSpaceOnUse"
       id="clipPath53">
      <path
         d="M 0,835 H 596 V 0 H 0 Z"
         transform="translate(0,-2.5000001e-5)"
         id="path53" />
    </clipPath>
    <clipPath
       clipPathUnits="userSpaceOnUse"
       id="clipPath55">
      <path
         d="M 0,835 H 596 V 0 H 0 Z"
         transform="translate(-502.18951,-531.84032)"
         id="path55" />
    </clipPath>
    <clipPath
       clipPathUnits="userSpaceOnUse"
       id="clipPath57">
      <path
         d="M 0,835 H 596 V 0 H 0 Z"
         transform="translate(0,-2.5000001e-5)"
         id="path57" />
    </clipPath>
    <clipPath
       clipPathUnits="userSpaceOnUse"
       id="clipPath59">
      <path
         d="M 0,835 H 596 V 0 H 0 Z"
         transform="translate(-291.21091,-340.97461)"
         id="path59" />
    </clipPath>
    <clipPath
       clipPathUnits="userSpaceOnUse"
       id="clipPath61">
      <path
         d="M 0,835 H 596 V 0 H 0 Z"
         transform="translate(0,-2.5000001e-5)"
         id="path61" />
    </clipPath>
    <clipPath
       clipPathUnits="userSpaceOnUse"
       id="clipPath63">
      <path
         d="M 0,835 H 596 V 0 H 0 Z"
         transform="translate(-114.46341,-530.98971)"
         id="path63" />
    </clipPath>
    <clipPath
       clipPathUnits="userSpaceOnUse"
       id="clipPath67">
      <path
         d="M 0,835 H 596 V 0 H 0 Z"
         transform="translate(-390.20411,-195.23881)"
         id="path67" />
    </clipPath>
    <clipPath
       clipPathUnits="userSpaceOnUse"
       id="clipPath69">
      <path
         d="M 0,835 H 596 V 0 H 0 Z"
         transform="translate(-381.57811,-163.07911)"
         id="path69" />
    </clipPath>
    <linearGradient
       x1="0"
       y1="0"
       x2="1"
       y2="0"
       gradientUnits="userSpaceOnUse"
       gradientTransform="matrix(38.374359,-38.374344,-38.374344,-38.374344,384.17578,663.80908)"
       spreadMethod="pad"
       id="linearGradient70">
      <stop
         style="stop-opacity:1;stop-color:#ffffff"
         offset="0"
         id="stop69" />
      <stop
         style="stop-opacity:1;stop-color:#231f20"
         offset="1"
         id="stop70" />
    </linearGradient>
    <clipPath
       clipPathUnits="userSpaceOnUse"
       id="clipPath72">
      <path
         d="M 0,835 H 596 V 0 H 0 Z"
         transform="translate(-412.02341,-614.90871)"
         id="path72" />
    </clipPath>
    <linearGradient
       x1="0"
       y1="0"
       x2="1"
       y2="0"
       gradientUnits="userSpaceOnUse"
       gradientTransform="matrix(20.768051,-50.138504,-50.138504,-20.768051,425.13965,622.51367)"
       spreadMethod="pad"
       id="linearGradient73">
      <stop
         style="stop-opacity:1;stop-color:#ffffff"
         offset="0"
         id="stop72" />
      <stop
         style="stop-opacity:1;stop-color:#231f20"
         offset="1"
         id="stop73" />
    </linearGradient>
    <clipPath
       clipPathUnits="userSpaceOnUse"
       id="clipPath75">
      <path
         d="M 0,835 H 596 V 0 H 0 Z"
         transform="translate(-432.15431,-566.67821)"
         id="path75" />
    </clipPath>
    <linearGradient
       x1="0"
       y1="0"
       x2="1"
       y2="0"
       gradientUnits="userSpaceOnUse"
       gradientTransform="matrix(-20.767303,-50.136704,-50.136704,20.767303,444.21875,508.979)"
       spreadMethod="pad"
       id="linearGradient76">
      <stop
         style="stop-opacity:1;stop-color:#ffffff"
         offset="0"
         id="stop75" />
      <stop
         style="stop-opacity:1;stop-color:#231f20"
         offset="1"
         id="stop76" />
    </linearGradient>
    <clipPath
       clipPathUnits="userSpaceOnUse"
       id="clipPath78">
      <path
         d="M 0,835 H 596 V 0 H 0 Z"
         transform="translate(-409.69731,-464.53961)"
         id="path78" />
    </clipPath>
    <linearGradient
       x1="0"
       y1="0"
       x2="1"
       y2="0"
       gradientUnits="userSpaceOnUse"
       gradientTransform="matrix(-38.374344,-38.374344,-38.374344,38.374359,421.74219,455.33008)"
       spreadMethod="pad"
       id="linearGradient79">
      <stop
         style="stop-opacity:1;stop-color:#ffffff"
         offset="0"
         id="stop78" />
      <stop
         style="stop-opacity:1;stop-color:#231f20"
         offset="1"
         id="stop79" />
    </linearGradient>
    <clipPath
       clipPathUnits="userSpaceOnUse"
       id="clipPath81">
      <path
         d="M 0,835 H 596 V 0 H 0 Z"
         transform="translate(-372.84181,-427.48291)"
         id="path81" />
    </clipPath>
    <linearGradient
       x1="0"
       y1="0"
       x2="1"
       y2="0"
       gradientUnits="userSpaceOnUse"
       gradientTransform="matrix(-54.268555,0,0,54.268555,328.04785,397.19971)"
       spreadMethod="pad"
       id="linearGradient82">
      <stop
         style="stop-opacity:1;stop-color:#ffffff"
         offset="0"
         id="stop81" />
      <stop
         style="stop-opacity:1;stop-color:#231f20"
         offset="1"
         id="stop82" />
    </linearGradient>
    <clipPath
       clipPathUnits="userSpaceOnUse"
       id="clipPath84">
      <path
         d="M 0,835 H 596 V 0 H 0 Z"
         transform="translate(-273.77931,-412.08641)"
         id="path84" />
    </clipPath>
    <linearGradient
       x1="0"
       y1="0"
       x2="1"
       y2="0"
       gradientUnits="userSpaceOnUse"
       gradientTransform="matrix(-38.372971,38.372971,38.372971,38.372971,218.09912,421.01367)"
       spreadMethod="pad"
       id="linearGradient85">
      <stop
         style="stop-opacity:1;stop-color:#ffffff"
         offset="0"
         id="stop84" />
      <stop
         style="stop-opacity:1;stop-color:#231f20"
         offset="1"
         id="stop85" />
    </linearGradient>
    <clipPath
       clipPathUnits="userSpaceOnUse"
       id="clipPath87">
      <path
         d="M 0,835 H 596 V 0 H 0 Z"
         transform="translate(-190.25391,-469.91211)"
         id="path87" />
    </clipPath>
    <linearGradient
       x1="0"
       y1="0"
       x2="1"
       y2="0"
       gradientUnits="userSpaceOnUse"
       gradientTransform="matrix(0,54.268555,54.268555,0,154.91406,516.06543)"
       spreadMethod="pad"
       id="linearGradient88">
      <stop
         style="stop-opacity:1;stop-color:#ffffff"
         offset="0"
         id="stop87" />
      <stop
         style="stop-opacity:1;stop-color:#231f20"
         offset="1"
         id="stop88" />
    </linearGradient>
    <clipPath
       clipPathUnits="userSpaceOnUse"
       id="clipPath90">
      <path
         d="M 0,835 H 596 V 0 H 0 Z"
         transform="translate(-169.80081,-570.33401)"
         id="path90" />
    </clipPath>
    <linearGradient
       x1="0"
       y1="0"
       x2="1"
       y2="0"
       gradientUnits="userSpaceOnUse"
       gradientTransform="matrix(38.372971,38.372971,38.372971,-38.372971,177.72852,627.01367)"
       spreadMethod="pad"
       id="linearGradient91">
      <stop
         style="stop-opacity:1;stop-color:#ffffff"
         offset="0"
         id="stop90" />
      <stop
         style="stop-opacity:1;stop-color:#231f20"
         offset="1"
         id="stop91" />
    </linearGradient>
    <clipPath
       clipPathUnits="userSpaceOnUse"
       id="clipPath93">
      <path
         d="M 0,835 H 596 V 0 H 0 Z"
         transform="translate(-226.627,-654.85992)"
         id="path93" />
    </clipPath>
    <linearGradient
       x1="0"
       y1="0"
       x2="1"
       y2="0"
       gradientUnits="userSpaceOnUse"
       gradientTransform="matrix(54.268555,0,0,-54.268555,273.78027,690.19971)"
       spreadMethod="pad"
       id="linearGradient94">
      <stop
         style="stop-opacity:1;stop-color:#ffffff"
         offset="0"
         id="stop93" />
      <stop
         style="stop-opacity:1;stop-color:#231f20"
         offset="1"
         id="stop94" />
    </linearGradient>
    <clipPath
       clipPathUnits="userSpaceOnUse"
       id="clipPath96">
      <path
         d="M 0,835 H 596 V 0 H 0 Z"
         transform="translate(-328.04881,-675.31302)"
         id="path96" />
    </clipPath>
    <clipPath
       clipPathUnits="userSpaceOnUse"
       id="clipPath98">
      <path
         d="M 0,835 H 596 V 0 H 0 Z"
         transform="translate(-301.20411,-808.23882)"
         id="path98" />
    </clipPath>
    <clipPath
       clipPathUnits="userSpaceOnUse"
       id="clipPath100">
      <path
         d="M 0,835 H 596 V 0 H 0 Z"
         transform="translate(-292.5781,-776.07912)"
         id="path100" />
    </clipPath>
    <clipPath
       clipPathUnits="userSpaceOnUse"
       id="clipPath102">
      <path
         d="M 0,835 H 596 V 0 H 0 Z"
         transform="translate(-55.204102,-564.23882)"
         id="path102" />
    </clipPath>
    <clipPath
       clipPathUnits="userSpaceOnUse"
       id="clipPath104">
      <path
         d="M 0,835 H 596 V 0 H 0 Z"
         transform="translate(-46.578101,-532.07912)"
         id="path104" />
    </clipPath>
    <clipPath
       clipPathUnits="userSpaceOnUse"
       id="clipPath106">
      <path
         d="M 0,835 H 596 V 0 H 0 Z"
         transform="translate(-474.83401,-393.16551)"
         id="path106" />
    </clipPath>
    <clipPath
       clipPathUnits="userSpaceOnUse"
       id="clipPath108">
      <path
         d="M 0,835 H 596 V 0 H 0 Z"
         transform="translate(-474.83981,-357.65871)"
         id="path108" />
    </clipPath>
    <clipPath
       clipPathUnits="userSpaceOnUse"
       id="clipPath110">
      <path
         d="M 0,835 H 596 V 0 H 0 Z"
         transform="translate(-298.834,-319.16551)"
         id="path110" />
    </clipPath>
    <clipPath
       clipPathUnits="userSpaceOnUse"
       id="clipPath112">
      <path
         d="M 0,835 H 596 V 0 H 0 Z"
         transform="translate(-298.83981,-283.65871)"
         id="path112" />
    </clipPath>
    <linearGradient
       x1="0"
       y1="0"
       x2="1"
       y2="0"
       gradientUnits="userSpaceOnUse"
       gradientTransform="matrix(54.268555,0,0,-54.268555,321.78027,90.199219)"
       spreadMethod="pad"
       id="linearGradient113">
      <stop
         style="stop-opacity:1;stop-color:#ffffff"
         offset="0"
         id="stop112" />
      <stop
         style="stop-opacity:1;stop-color:#231f20"
         offset="1"
         id="stop113" />
    </linearGradient>
    <clipPath
       clipPathUnits="userSpaceOnUse"
       id="clipPath115">
      <path
         d="M 0,835 H 596 V 0 H 0 Z"
         transform="translate(-376.04881,-75.312477)"
         id="path115" />
    </clipPath>
    <clipPath
       clipPathUnits="userSpaceOnUse"
       id="clipPath117">
      <path
         d="M 0,835 H 596 V 0 H 0 Z"
         transform="translate(-373.83401,-152.1655)"
         id="path117" />
    </clipPath>
    <clipPath
       clipPathUnits="userSpaceOnUse"
       id="clipPath119">
      <path
         d="M 0,835 H 596 V 0 H 0 Z"
         transform="translate(-373.83981,-116.6587)"
         id="path119" />
    </clipPath>
  </defs>
  <sodipodi:namedview
     id="namedview1"
     pagecolor="#ffffff"
     bordercolor="#666666"
     borderopacity="1.0"
     inkscape:showpageshadow="2"
     inkscape:pageopacity="0.0"
     inkscape:pagecheckerboard="0"
     inkscape:deskcolor="#d1d1d1"
     inkscape:zoom="0.21197607"
     inkscape:cx="398.6299"
     inkscape:cy="556.6666"
     inkscape:window-width="1392"
     inkscape:window-height="318"
     inkscape:window-x="0"
     inkscape:window-y="25"
     inkscape:window-maximized="0"
     inkscape:current-layer="layer-MC0">
    <inkscape:page
       x="0"
       y="0"
       inkscape:label="1"
       id="page1"
       width="794.66669"
       height="1113.3333"
       margin="91.940132 87.28933 34.130665 46.494801"
       bleed="0" />
  </sodipodi:namedview>
  <g
     id="layer-MC0"
     inkscape:groupmode="layer"
     inkscape:label="Layer 1">
    <path
       id="path1"
       d="m 0,0 -0.089,5.387 -0.222,4.682 -0.411,5.256 -0.583,5.275 -0.753,5.229 -0.848,4.823 -1.031,4.965 -1.228,5.097 -1.384,5.041 -1.594,5.135 -1.542,4.477 -1.89,4.985 -2.064,4.941 -2.14,4.694 -2.07,4.202 -2.619,4.918 -2.347,4.093 -2.88,4.674 -2.678,4.055 -3.076,4.353 -3.063,4.051 -3.324,4.121 -3.17,3.69 -3.542,3.871 -3.808,3.898 -3.418,3.288 -3.801,3.439 -4.035,3.424 -4.055,3.223 -4.019,2.993 -4.566,3.177 -4.195,2.721 -4.566,2.76 -4.215,2.373 -4.686,2.45 -4.48,2.164 -4.752,2.115 -4.707,1.921 -4.99,1.853 -4.859,1.629 -5.023,1.508 -5.025,1.335 -4.652,1.085 -5.37,1.075 -4.831,0.809 -5.173,0.702 -4.971,0.516 -5.536,0.395 -4.802,0.189 -5.454,0.044 -4.969,-0.12 -5.43,-0.304 -4.674,-0.406 -5.305,-0.628 -5.105,-0.771 -5.073,-0.932 -5.021,-1.086 -4.792,-1.193 -5.135,-1.451 -4.849,-1.54 -5.047,-1.782 -4.515,-1.756 -4.932,-2.095 -4.653,-2.158 -4.572,-2.296 -4.698,-2.552 -4.249,-2.486 -4.273,-2.676 -4.619,-3.107 -4.088,-2.947 -4.085,-3.144 -4.051,-3.328 -3.626,-3.173 -3.762,-3.497 -3.621,-3.588 -3.749,-3.959 -3.196,-3.596 -3.553,-4.265 -3.081,-3.952 -2.928,-3.999 -3.01,-4.399 -2.877,-4.513 -2.488,-4.186 -2.503,-4.525 -2.304,-4.49 -2.339,-4.944 -1.889,-4.341 -2.012,-5.05 -1.739,-4.807 -1.572,-4.809 -1.424,-4.862 -1.295,-5.001 -1.199,-5.344 -0.941,-4.932 -0.781,-4.894 -0.668,-5.257 -0.498,-5.264 -0.299,-4.736 -0.178,-5.618 v -4.704 l 0.173,-5.498 0.337,-5.239 0.444,-4.666 0.658,-5.233 0.834,-5.24 0.998,-5.187 1.075,-4.777 1.265,-4.91 1.467,-5.035 1.623,-4.969 1.835,-5.055 1.753,-4.398 2.125,-4.889 2.294,-4.838 2.36,-4.587 2.267,-4.1 2.848,-4.788 2.54,-3.978 3.097,-4.533 2.867,-3.922 3.28,-4.204 3.249,-3.901 3.516,-3.96 3.342,-3.535 3.721,-3.699 3.987,-3.715 3.572,-3.121 3.958,-3.256 4.195,-3.228 4.202,-3.028 4.155,-2.798 4.711,-2.958 4.319,-2.519 4.692,-2.542 4.323,-2.171 4.795,-2.224 4.577,-1.95 4.846,-1.889 4.794,-1.696 5.073,-1.614 4.932,-1.397 5.087,-1.268 5.082,-1.096 4.7,-0.864 5.415,-0.818 4.862,-0.579 5.203,-0.456 4.988,-0.282 5.549,-0.131 4.805,0.037 5.449,0.215 4.96,0.355 5.407,0.559 4.651,0.627 5.27,0.88 5.061,1.012 5.025,1.169 4.965,1.324 4.727,1.418 5.061,1.693 4.771,1.768 4.956,2.02 4.429,1.966 4.825,2.326 4.546,2.377 4.46,2.51 4.572,2.772 4.128,2.681 4.138,2.877 4.467,3.323 3.946,3.137 3.931,3.335 3.888,3.514 3.472,3.341 3.591,3.673 3.448,3.754 3.559,4.133 3.022,3.744 3.347,4.429 2.891,4.091 2.733,4.135 2.8,4.536 2.661,4.643 2.285,4.299 2.286,4.64 2.089,4.593 2.102,5.051 1.682,4.424 1.772,5.141 1.509,4.882 1.343,4.881 1.19,4.923 1.058,5.056 0.945,5.394 0.707,4.972 0.548,4.925 0.419,5.282 0.246,5.281 L 0,0"
       style="fill:none;stroke:#100f0d;stroke-width:2.081;stroke-linecap:butt;stroke-linejoin:round;stroke-miterlimit:10;stroke-dasharray:none;stroke-opacity:1"
       transform="matrix(1.3333333,0,0,-1.3333333,618.81507,388.9876)" />
    <path
       id="path2"
       d="m 0,0 -0.121,7.324 -0.301,6.365 -0.558,7.148 -0.796,7.17 -1.023,7.108 -1.152,6.559 -1.4,6.749 -1.669,6.933 -1.884,6.851 -2.167,6.982 -2.099,6.088 -2.568,6.778 -2.805,6.717 -2.91,6.38 -2.816,5.715 -3.559,6.686 -3.192,5.563 -3.914,6.357 -3.641,5.51 -4.184,5.921 -4.161,5.507 -4.521,5.605 -4.311,5.016 -4.815,5.262 -5.177,5.3 -4.651,4.471 -5.165,4.675 -5.487,4.656 -5.513,4.38 -5.463,4.07 -6.209,4.32 -5.702,3.699 -6.21,3.755 -5.729,3.226 -6.37,3.327 -6.093,2.945 -6.458,2.876 -6.4,2.61 -6.786,2.52 -6.608,2.214 -6.827,2.051 -6.833,1.815 -6.322,1.475 -7.303,1.462 -6.566,1.099 -7.036,0.955 -6.758,0.702 -7.526,0.537 -6.53,0.257 -7.415,0.059 -6.756,-0.162 -7.381,-0.413 -6.355,-0.554 -7.214,-0.853 -6.939,-1.048 -6.897,-1.265 -6.831,-1.478 -6.511,-1.623 -6.983,-1.974 -6.591,-2.091 -6.862,-2.424 -6.143,-2.386 -6.7,-2.85 -6.326,-2.933 -6.219,-3.124 -6.387,-3.468 -5.777,-3.379 -5.809,-3.639 -6.28,-4.224 -5.558,-4.008 -5.553,-4.274 -5.507,-4.524 -4.932,-4.313 -5.113,-4.757 -4.925,-4.875 -5.096,-5.384 -4.345,-4.891 -4.832,-5.799 -4.188,-5.371 -3.98,-5.438 -4.093,-5.98 -3.912,-6.136 -3.382,-5.692 -3.404,-6.152 -3.132,-6.104 -3.18,-6.724 -2.568,-5.9 -2.738,-6.868 -2.363,-6.533 -2.138,-6.541 -1.933,-6.61 -1.763,-6.798 -1.63,-7.266 -1.28,-6.705 -1.06,-6.656 -0.91,-7.146 -0.674,-7.156 -0.41,-6.438 -0.241,-7.64 V -3.21 l 0.234,-7.476 0.458,-7.124 0.604,-6.343 0.896,-7.113 1.133,-7.127 1.358,-7.052 1.462,-6.494 1.719,-6.676 1.995,-6.846 2.206,-6.756 2.495,-6.871 2.382,-5.98 2.891,-6.65 3.118,-6.575 3.209,-6.24 3.083,-5.572 3.872,-6.508 3.452,-5.408 4.211,-6.164 3.899,-5.334 4.459,-5.713 4.416,-5.304 4.782,-5.387 4.543,-4.805 5.059,-5.029 5.423,-5.049 4.855,-4.246 5.381,-4.424 5.703,-4.392 5.713,-4.115 5.647,-3.806 6.409,-4.021 5.871,-3.424 6.38,-3.458 5.875,-2.951 6.521,-3.023 6.226,-2.651 6.586,-2.569 6.515,-2.304 6.9,-2.194 6.706,-1.9 6.916,-1.725 6.91,-1.49 6.389,-1.174 7.359,-1.114 6.614,-0.788 7.07,-0.619 6.785,-0.382 7.543,-0.18 6.534,0.053 7.411,0.293 6.741,0.479 7.351,0.762 6.321,0.856 7.168,1.192 6.883,1.376 6.826,1.592 6.752,1.799 6.431,1.927 6.88,2.303 6.486,2.403 6.74,2.744 6.02,2.675 6.559,3.163 6.181,3.231 6.063,3.415 6.215,3.765 5.611,3.649 5.631,3.909 6.072,4.518 5.364,4.267 5.345,4.532 5.286,4.78 4.723,4.542 4.883,4.992 4.686,5.103 4.838,5.62 4.107,5.089 4.55,6.022 3.928,5.563 3.72,5.622 3.807,6.169 3.618,6.312 3.108,5.846 3.107,6.305 2.841,6.247 2.856,6.867 2.287,6.015 2.409,6.987 2.051,6.641 1.824,6.634 1.621,6.695 1.437,6.873 1.287,7.336 0.96,6.758 0.742,6.696 0.572,7.181 0.336,7.181 L 0,0"
       style="fill:none;stroke:#100f0d;stroke-width:3;stroke-linecap:butt;stroke-linejoin:round;stroke-miterlimit:10;stroke-dasharray:none;stroke-opacity:1"
       transform="matrix(1.3333333,0,0,-1.3333333,697.01693,388.98507)" />
    <path
       id="path3"
       d="M 0,0 V -442.261"
       style="fill:none;stroke:#211d1d;stroke-width:2;stroke-linecap:butt;stroke-linejoin:miter;stroke-miterlimit:10;stroke-dasharray:none;stroke-opacity:1"
       transform="matrix(1.3333333,0,0,-1.3333333,401.3464,94.1484)" />
    <path
       id="path4"
       d="m 0,0 c 2.736,0 4.955,-2.22 4.955,-4.956 0,-2.738 -2.219,-4.957 -4.955,-4.957 -2.738,0 -4.959,2.219 -4.959,4.957 C -4.959,-2.22 -2.738,0 0,0"
       style="fill:#100f0d;fill-opacity:1;fill-rule:nonzero;stroke:#211d1d;stroke-width:1;stroke-linecap:butt;stroke-linejoin:miter;stroke-miterlimit:10;stroke-dasharray:none;stroke-opacity:1"
       transform="matrix(1.3333333,0,0,-1.3333333,401.34893,382.38027)"
       clip-path="url(#clipPath5)" />
    <path
       id="path6"
       d="M 0,0 H 442.261"
       style="fill:none;stroke:#211d1d;stroke-width:2;stroke-linecap:butt;stroke-linejoin:miter;stroke-miterlimit:10;stroke-dasharray:none;stroke-opacity:1"
       transform="matrix(1.3333333,0,0,-1.3333333,106.5052,388.9896)"
       clip-path="url(#clipPath7)" />
    <path
       id="path8"
       d="M 0,0 -1.148,-2.771"
       style="fill:none;stroke:#211d1d;stroke-width:1;stroke-linecap:butt;stroke-linejoin:miter;stroke-miterlimit:10;stroke-dasharray:none;stroke-opacity:1"
       transform="matrix(1.3333333,0,0,-1.3333333,514.17707,116.59173)"
       clip-path="url(#clipPath9)" />
    <path
       id="path10"
       d="M 0,0 -163.519,-394.771"
       style="fill:none;stroke:#211d1d;stroke-width:1;stroke-linecap:butt;stroke-linejoin:miter;stroke-miterlimit:10;stroke-dasharray:5.976, 5.976;stroke-dashoffset:0;stroke-opacity:1"
       transform="matrix(1.3333333,0,0,-1.3333333,509.5976,127.64907)"
       clip-path="url(#clipPath11)" />
    <path
       id="path12"
       d="M 0,0 -1.148,-2.771"
       style="fill:none;stroke:#211d1d;stroke-width:1;stroke-linecap:butt;stroke-linejoin:miter;stroke-miterlimit:10;stroke-dasharray:none;stroke-opacity:1"
       transform="matrix(1.3333333,0,0,-1.3333333,290.04747,657.6908)"
       clip-path="url(#clipPath13)" />
    <path
       id="path14"
       d="M 0,0 -2.121,-2.122"
       style="fill:none;stroke:#211d1d;stroke-width:1;stroke-linecap:butt;stroke-linejoin:miter;stroke-miterlimit:10;stroke-dasharray:none;stroke-opacity:1"
       transform="matrix(1.3333333,0,0,-1.3333333,609.82947,180.50587)"
       clip-path="url(#clipPath15)" />
    <path
       id="path16"
       d="M 0,0 -302.144,-302.143"
       style="fill:none;stroke:#211d1d;stroke-width:1;stroke-linecap:butt;stroke-linejoin:miter;stroke-miterlimit:10;stroke-dasharray:5.976, 5.976;stroke-dashoffset:0;stroke-opacity:1"
       transform="matrix(1.3333333,0,0,-1.3333333,601.3672,188.9688)"
       clip-path="url(#clipPath17)" />
    <path
       id="path18"
       d="M 0,0 -2.121,-2.121"
       style="fill:none;stroke:#211d1d;stroke-width:1;stroke-linecap:butt;stroke-linejoin:miter;stroke-miterlimit:10;stroke-dasharray:none;stroke-opacity:1"
       transform="matrix(1.3333333,0,0,-1.3333333,195.69147,594.64387)"
       clip-path="url(#clipPath19)" />
    <path
       id="path20"
       d="M 0,0 -2.771,-1.148"
       style="fill:none;stroke:#211d1d;stroke-width:1;stroke-linecap:butt;stroke-linejoin:miter;stroke-miterlimit:10;stroke-dasharray:none;stroke-opacity:1"
       transform="matrix(1.3333333,0,0,-1.3333333,673.74347,276.15827)"
       clip-path="url(#clipPath21)" />
    <path
       id="path22"
       d="M 0,0 -394.771,-163.52"
       style="fill:none;stroke:#211d1d;stroke-width:1;stroke-linecap:butt;stroke-linejoin:miter;stroke-miterlimit:10;stroke-dasharray:5.976, 5.976;stroke-dashoffset:0;stroke-opacity:1"
       transform="matrix(1.3333333,0,0,-1.3333333,662.68613,280.73827)"
       clip-path="url(#clipPath23)" />
    <path
       id="path24"
       d="M 0,0 -2.771,-1.148"
       style="fill:none;stroke:#211d1d;stroke-width:1;stroke-linecap:butt;stroke-linejoin:miter;stroke-miterlimit:10;stroke-dasharray:none;stroke-opacity:1"
       transform="matrix(1.3333333,0,0,-1.3333333,132.64453,500.28907)"
       clip-path="url(#clipPath25)" />
    <path
       id="path26"
       d="M 0,0 -2.771,1.148"
       style="fill:none;stroke:#211d1d;stroke-width:1;stroke-linecap:butt;stroke-linejoin:miter;stroke-miterlimit:10;stroke-dasharray:none;stroke-opacity:1"
       transform="matrix(1.3333333,0,0,-1.3333333,673.74347,501.8196)"
       clip-path="url(#clipPath27)" />
    <path
       id="path28"
       d="M 0,0 -394.771,163.519"
       style="fill:none;stroke:#211d1d;stroke-width:1;stroke-linecap:butt;stroke-linejoin:miter;stroke-miterlimit:10;stroke-dasharray:5.976, 5.976;stroke-dashoffset:0;stroke-opacity:1"
       transform="matrix(1.3333333,0,0,-1.3333333,662.68613,497.2396)"
       clip-path="url(#clipPath29)" />
    <path
       id="path30"
       d="M 0,0 -2.771,1.148"
       style="fill:none;stroke:#211d1d;stroke-width:1;stroke-linecap:butt;stroke-linejoin:miter;stroke-miterlimit:10;stroke-dasharray:none;stroke-opacity:1"
       transform="matrix(1.3333333,0,0,-1.3333333,132.64453,277.68947)"
       clip-path="url(#clipPath31)" />
    <path
       id="path32"
       d="M 0,0 -2.121,2.121"
       style="fill:none;stroke:#211d1d;stroke-width:1;stroke-linecap:butt;stroke-linejoin:miter;stroke-miterlimit:10;stroke-dasharray:none;stroke-opacity:1"
       transform="matrix(1.3333333,0,0,-1.3333333,609.82947,597.472)"
       clip-path="url(#clipPath33)" />
    <path
       id="path34"
       d="M 0,0 -302.144,302.143"
       style="fill:none;stroke:#211d1d;stroke-width:1;stroke-linecap:butt;stroke-linejoin:miter;stroke-miterlimit:10;stroke-dasharray:5.976, 5.976;stroke-dashoffset:0;stroke-opacity:1"
       transform="matrix(1.3333333,0,0,-1.3333333,601.3672,589.00907)"
       clip-path="url(#clipPath35)" />
    <path
       id="path36"
       d="M 0,0 -2.121,2.122"
       style="fill:none;stroke:#211d1d;stroke-width:1;stroke-linecap:butt;stroke-linejoin:miter;stroke-miterlimit:10;stroke-dasharray:none;stroke-opacity:1"
       transform="matrix(1.3333333,0,0,-1.3333333,195.69147,183.33467)"
       clip-path="url(#clipPath37)" />
    <path
       id="path38"
       d="M 0,0 -1.148,2.771"
       style="fill:none;stroke:#211d1d;stroke-width:1;stroke-linecap:butt;stroke-linejoin:miter;stroke-miterlimit:10;stroke-dasharray:none;stroke-opacity:1"
       transform="matrix(1.3333333,0,0,-1.3333333,514.17707,661.38613)"
       clip-path="url(#clipPath39)" />
    <path
       id="path40"
       d="M 0,0 -163.52,394.771"
       style="fill:none;stroke:#211d1d;stroke-width:1;stroke-linecap:butt;stroke-linejoin:miter;stroke-miterlimit:10;stroke-dasharray:5.976, 5.976;stroke-dashoffset:0;stroke-opacity:1"
       transform="matrix(1.3333333,0,0,-1.3333333,509.5976,650.3288)"
       clip-path="url(#clipPath41)" />
    <path
       id="path42"
       d="M 0,0 -1.148,2.771"
       style="fill:none;stroke:#211d1d;stroke-width:1;stroke-linecap:butt;stroke-linejoin:miter;stroke-miterlimit:10;stroke-dasharray:none;stroke-opacity:1"
       transform="matrix(1.3333333,0,0,-1.3333333,290.04627,120.28707)"
       clip-path="url(#clipPath43)" />
    <path
       id="path44"
       d="M 0,0 34.768,-34.765"
       style="fill:none;stroke:#211d1d;stroke-width:2;stroke-linecap:butt;stroke-linejoin:miter;stroke-miterlimit:10;stroke-dasharray:none;stroke-opacity:1"
       transform="matrix(1.3333333,0,0,-1.3333333,599.12893,142.54427)"
       clip-path="url(#clipPath45)" />
    <path
       id="path46"
       d="m 0,0 c -5.507,2.526 -13.032,4.966 -18.813,5.361 l 9.158,4.294 4.291,9.157 C -4.968,13.03 -2.527,5.505 0,0"
       style="fill:#211d1d;fill-opacity:1;fill-rule:nonzero;stroke:none"
       transform="matrix(1.3333333,0,0,-1.3333333,656.86587,200.27667)"
       clip-path="url(#clipPath47)" />
    <path
       id="path48"
       d="m 328.113,708.144 h -53.581 v 53.582 h 53.581 z"
       style="fill:#100f0d;fill-opacity:1;fill-rule:nonzero;stroke:none"
       transform="matrix(1.3333333,0,0,-1.3333333,0,1113.3333)"
       clip-path="url(#clipPath49)" />
    <text
       id="text49"
       xml:space="preserve"
       transform="matrix(1.3333333,0,0,1.3333333,387.80333,149.39587)"><tspan
         style="font-variant:normal;font-weight:normal;font-stretch:normal;font-size:40.824px;font-family:'Myriad Pro';writing-mode:lr-tb;fill:#ffffff;fill-opacity:1;fill-rule:nonzero;stroke:none"
         x="0"
         y="0"
         id="tspan49">1</tspan></text>
    <path
       id="path50"
       d="M 0,0 H 3.47 V 26.536 H 0.408 l -5.797,-3.103 0.694,-2.735 4.613,2.49 H 0 Z"
       style="fill:none;stroke:#ffffff;stroke-width:1;stroke-linecap:butt;stroke-linejoin:miter;stroke-miterlimit:10;stroke-dasharray:none;stroke-opacity:1"
       transform="matrix(1.3333333,0,0,-1.3333333,400.64973,149.39587)"
       clip-path="url(#clipPath51)" />
    <path
       id="path52"
       d="m 520.672,517.032 h -53.581 v 53.581 h 53.581 z"
       style="fill:#100f0d;fill-opacity:1;fill-rule:nonzero;stroke:none"
       transform="matrix(1.3333333,0,0,-1.3333333,0,1113.3333)"
       clip-path="url(#clipPath53)" />
    <text
       id="text53"
       xml:space="preserve"
       transform="matrix(1.3333333,0,0,1.3333333,644.54693,404.21293)"><tspan
         style="font-variant:normal;font-weight:normal;font-stretch:normal;font-size:40.824px;font-family:'Myriad Pro';writing-mode:lr-tb;fill:#ffffff;fill-opacity:1;fill-rule:nonzero;stroke:none"
         x="0"
         y="0"
         id="tspan53">2</tspan></text>
    <path
       id="path54"
       d="m 0,0 v 2.98 h -11.88 v 0.082 l 2.082,1.959 c 5.593,5.389 9.145,9.349 9.145,14.248 0,3.796 -2.41,7.716 -8.124,7.716 -3.022,0 -5.675,-1.184 -7.471,-2.695 l 1.143,-2.531 c 1.224,1.021 3.225,2.245 5.633,2.245 3.96,0 5.226,-2.49 5.226,-5.184 0,-4.001 -3.103,-7.43 -9.879,-13.88 L -16.942,2.205 V 0 Z"
       style="fill:none;stroke:#ffffff;stroke-width:1;stroke-linecap:butt;stroke-linejoin:miter;stroke-miterlimit:10;stroke-dasharray:none;stroke-opacity:1"
       transform="matrix(1.3333333,0,0,-1.3333333,669.586,404.21293)"
       clip-path="url(#clipPath55)" />
    <path
       id="path56"
       d="M 326.758,324.819 H 273.177 V 378.4 h 53.581 z"
       style="fill:#100f0d;fill-opacity:1;fill-rule:nonzero;stroke:none"
       transform="matrix(1.3333333,0,0,-1.3333333,0,1113.3333)"
       clip-path="url(#clipPath57)" />
    <text
       id="text57"
       xml:space="preserve"
       transform="matrix(1.3333333,0,0,1.3333333,385.9948,660.4968)"><tspan
         style="font-variant:normal;font-weight:normal;font-stretch:normal;font-size:40.824px;font-family:'Myriad Pro';writing-mode:lr-tb;fill:#ffffff;fill-opacity:1;fill-rule:nonzero;stroke:none"
         x="0"
         y="0"
         id="tspan57">3</tspan></text>
    <path
       id="path58"
       d="m 0,0 c 1.306,-0.857 3.919,-1.796 6.899,-1.796 6.328,0 9.675,3.715 9.675,7.961 -0.041,3.714 -2.653,6.164 -5.919,6.776 v 0.082 c 3.225,1.184 4.899,3.511 4.899,6.287 0,3.225 -2.368,6.328 -7.594,6.328 -2.857,0 -5.552,-1.021 -6.981,-2.042 l 0.98,-2.613 c 1.144,0.817 3.185,1.756 5.308,1.756 3.306,0 4.653,-1.878 4.653,-4.001 0,-3.143 -3.307,-4.49 -5.919,-4.49 h -2 v -2.695 h 2 c 3.47,0 6.817,-1.592 6.858,-5.307 C 12.9,4.001 11.431,1.102 6.858,1.102 4.327,1.102 2,2.123 0.979,2.735 Z"
       style="fill:none;stroke:#ffffff;stroke-width:1;stroke-linecap:butt;stroke-linejoin:miter;stroke-miterlimit:10;stroke-dasharray:none;stroke-opacity:1"
       transform="matrix(1.3333333,0,0,-1.3333333,388.2812,658.70053)"
       clip-path="url(#clipPath59)" />
    <path
       id="path60"
       d="M 135.396,516.181 H 81.815 v 53.581 h 53.581 z"
       style="fill:#100f0d;fill-opacity:1;fill-rule:nonzero;stroke:none"
       transform="matrix(1.3333333,0,0,-1.3333333,0,1113.3333)"
       clip-path="url(#clipPath61)" />
    <text
       id="text61"
       xml:space="preserve"
       transform="matrix(1.3333333,0,0,1.3333333,130.84507,405.34707)"><tspan
         style="font-variant:normal;font-weight:normal;font-stretch:normal;font-size:40.824px;font-family:'Myriad Pro';writing-mode:lr-tb;fill:#ffffff;fill-opacity:1;fill-rule:nonzero;stroke:none"
         x="0"
         y="0"
         id="tspan61">4</tspan></text>
    <path
       id="path62"
       d="m 0,0 v 7.267 h 3.715 v 2.775 H 0 V 26.536 H -3.878 L -15.717,9.594 V 7.267 H -3.388 V 0 Z m -12.084,10.042 v 0.083 l 6.491,9.021 c 0.735,1.225 1.388,2.368 2.205,3.919 h 0.122 C -3.348,21.678 -3.388,20.29 -3.388,18.901 v -8.859 z"
       style="fill:none;stroke:#ffffff;stroke-width:1;stroke-linecap:butt;stroke-linejoin:miter;stroke-miterlimit:10;stroke-dasharray:none;stroke-opacity:1"
       transform="matrix(1.3333333,0,0,-1.3333333,152.61787,405.34707)"
       clip-path="url(#clipPath63)" />
    <text
       id="text63"
       xml:space="preserve"
       transform="matrix(1.3333333,0,0,1.3333333,163.4024,836.5924)"><tspan
         style="font-variant:normal;font-weight:normal;font-stretch:normal;font-size:36px;font-family:'Myriad Pro';writing-mode:lr-tb;fill:#231f20;fill-opacity:1;fill-rule:nonzero;stroke:none"
         x="0 20.087999 37.439999 51.695999 65.952003 83.304001 90.935997 108.9 128.664 140.076"
         y="0"
         sodipodi:role="line"
         id="tspan63">Kassa Soro</tspan><tspan
         style="font-variant:normal;font-weight:normal;font-stretch:normal;font-size:36px;font-family:'Myriad Pro';writing-mode:lr-tb;fill:#231f20;fill-opacity:1;fill-rule:nonzero;stroke:none"
         x="0 14.256 31.608 51.588001 71.711998 92.195999 109.548 129.528 137.16 156.924 176.75999 193.716 211.752 224.388"
         y="43.200001"
         sodipodi:role="line"
         id="tspan64">sangban ouvert</tspan><tspan
         style="font-variant:normal;font-weight:normal;font-stretch:normal;font-size:36px;font-family:'Myriad Pro';writing-mode:lr-tb;fill:#231f20;fill-opacity:1;fill-rule:nonzero;stroke:none"
         x="0 14.256 31.608 51.588001 71.711998 92.195999 109.548 129.528 137.16 147.20399 165.24001 177.15601 207.17999 225.216"
         y="86.400002"
         sodipodi:role="line"
         id="tspan65">sangban fermé </tspan><tspan
         style="font-variant:normal;font-weight:normal;font-stretch:normal;font-size:36px;font-family:'Myriad Pro';writing-mode:lr-tb;fill:#231f20;fill-opacity:1;fill-rule:nonzero;stroke:none"
         x="0 14.256 31.608 39.240002 55.368 63.863998 83.627998 99.755997 119.736"
         y="129.60001"
         sodipodi:role="line"
         id="tspan66">sa cloche</tspan></text>
    <path
       id="path66"
       d="m 0,0 c 10.946,0 19.821,-8.877 19.821,-19.82 0,-10.951 -8.875,-19.828 -19.821,-19.828 -10.949,0 -19.833,8.877 -19.833,19.828 C -19.833,-8.877 -10.949,0 0,0"
       style="fill:#211d1d;fill-opacity:1;fill-rule:nonzero;stroke:#4565b9;stroke-width:1;stroke-linecap:butt;stroke-linejoin:miter;stroke-miterlimit:10;stroke-dasharray:none;stroke-opacity:1"
       transform="matrix(1.3333333,0,0,-1.3333333,520.27213,853.01493)"
       clip-path="url(#clipPath67)" />
    <text
       id="text67"
       xml:space="preserve"
       transform="matrix(1.3333333,0,0,1.3333333,506.4844,897.6908)"><tspan
         style="font-variant:normal;font-weight:normal;font-stretch:normal;font-size:40.824px;font-family:'Myriad Pro';writing-mode:lr-tb;fill:#ffffff;fill-opacity:1;fill-rule:nonzero;stroke:none"
         x="0"
         y="0"
         id="tspan67">S</tspan></text>
    <path
       id="path68"
       d="m 0,0 c 1.47,-0.98 4.368,-1.796 7.021,-1.796 6.492,0 9.594,3.715 9.594,7.961 0,4.041 -2.327,6.286 -6.981,8.083 -3.796,1.469 -5.47,2.735 -5.47,5.307 0,1.878 1.429,4.123 5.185,4.123 2.49,0 4.327,-0.776 5.184,-1.306 l 0.98,2.898 c -1.184,0.694 -3.266,1.347 -6.042,1.347 -5.348,0 -8.9,-3.184 -8.9,-7.471 0,-3.837 2.777,-6.205 7.267,-7.838 3.715,-1.388 5.184,-2.898 5.184,-5.429 0,-2.776 -2.123,-4.695 -5.755,-4.695 -2.45,0 -4.736,0.775 -6.329,1.796 z"
       style="fill:none;stroke:#ffffff;stroke-width:1;stroke-linecap:butt;stroke-linejoin:miter;stroke-miterlimit:10;stroke-dasharray:none;stroke-opacity:1"
       transform="matrix(1.3333333,0,0,-1.3333333,508.7708,895.89453)"
       clip-path="url(#clipPath69)" />
    <path
       id="path70"
       d="m 398.552,653.817 c -4.232,-2.502 -8.651,-4.537 -13.639,-5.02 v 0 c -5.451,-0.525 -7.085,0.907 -10.732,4.486 v 0 h -0.532 l 38.375,-38.374 -0.266,0.797 c -3.579,3.648 -5.012,5.283 -4.485,10.732 v 0 c 0.482,4.988 2.516,9.407 5.018,13.64 v 0 c 2.687,4.543 5.907,10.494 1.598,15.07 v 0 l -0.266,0.266 c -1.615,1.521 -3.4,2.104 -5.234,2.104 v 0 c -3.365,-10e-4 -6.896,-1.963 -9.837,-3.701"
       transform="matrix(1.3333333,0,0,-1.3333333,0,1113.3333)"
       style="fill:url(#linearGradient70);stroke:none" />
    <path
       id="path71"
       d="m 0,0 -38.374,38.374 h 0.532 c 3.647,-3.579 5.281,-5.011 10.732,-4.485 4.987,0.482 9.406,2.517 13.639,5.019 4.544,2.687 10.494,5.906 15.071,1.598 L 1.866,40.239 C 6.174,35.663 2.955,29.713 0.268,25.17 -2.234,20.937 -4.269,16.517 -4.75,11.529 -5.277,6.08 -3.845,4.445 -0.266,0.798"
       style="fill:none;stroke:#100f0d;stroke-width:1;stroke-linecap:butt;stroke-linejoin:miter;stroke-miterlimit:10;stroke-dasharray:none;stroke-opacity:1"
       transform="matrix(1.3333333,0,0,-1.3333333,549.36453,293.45507)"
       clip-path="url(#clipPath72)" />
    <path
       id="path73"
       d="m 432.154,566.678 0.061,0.84 c -1.911,4.738 -2.612,6.797 -0.038,11.631 v 0 c 2.354,4.424 5.925,7.727 9.857,10.681 v 0 c 4.221,3.17 9.472,7.435 7.243,13.311 v 0 l -0.145,0.348 c -2.578,5.732 -9.306,5.035 -14.533,4.291 v 0 c -4.87,-0.69 -9.73,-0.881 -14.523,0.584 v 0 c -5.237,1.597 -6.197,3.549 -8.197,8.249 v 0 l -0.493,0.203 z"
       transform="matrix(1.3333333,0,0,-1.3333333,0,1113.3333)"
       style="fill:url(#linearGradient73);stroke:none" />
    <path
       id="path74"
       d="m 0,0 -20.768,50.138 0.493,-0.202 c 2,-4.702 2.96,-6.653 8.197,-8.25 4.793,-1.465 9.653,-1.275 14.523,-0.584 5.227,0.744 11.954,1.441 14.534,-4.291 l 0.144,-0.348 C 19.352,30.587 14.101,26.322 9.88,23.152 5.947,20.197 2.377,16.895 0.023,12.471 -2.551,7.637 -1.85,5.578 0.061,0.84"
       style="fill:none;stroke:#100f0d;stroke-width:1;stroke-linecap:butt;stroke-linejoin:miter;stroke-miterlimit:10;stroke-dasharray:none;stroke-opacity:1"
       transform="matrix(1.3333333,0,0,-1.3333333,576.20573,357.7624)"
       clip-path="url(#clipPath75)" />
    <path
       id="path76"
       d="m 409.697,464.539 0.637,0.551 c 2,4.702 2.961,6.651 8.197,8.251 v 0 c 4.791,1.462 9.655,1.275 14.524,0.584 v 0 c 5.224,-0.745 11.954,-1.443 14.534,4.289 v 0 l 0.142,0.348 c 2.23,5.877 -3.02,10.142 -7.24,13.31 v 0 c -3.934,2.954 -7.505,6.258 -9.858,10.681 v 0 c -2.572,4.836 -1.874,6.893 0.036,11.63 v 0 l -0.204,0.494 z"
       transform="matrix(1.3333333,0,0,-1.3333333,0,1113.3333)"
       style="fill:url(#linearGradient76);stroke:none" />
    <path
       id="path77"
       d="m 0,0 20.768,50.137 0.204,-0.493 c -1.91,-4.738 -2.609,-6.794 -0.036,-11.63 2.352,-4.423 5.923,-7.727 9.857,-10.682 4.221,-3.168 9.471,-7.433 7.241,-13.31 L 37.892,13.675 C 35.312,7.942 28.582,8.641 23.357,9.385 18.488,10.076 13.625,10.264 8.834,8.801 3.598,7.202 2.637,5.252 0.637,0.551"
       style="fill:none;stroke:#100f0d;stroke-width:1;stroke-linecap:butt;stroke-linejoin:miter;stroke-miterlimit:10;stroke-dasharray:none;stroke-opacity:1"
       transform="matrix(1.3333333,0,0,-1.3333333,546.26307,493.9472)"
       clip-path="url(#clipPath78)" />
    <path
       id="path79"
       d="m 372.842,427.483 0.798,0.265 c 3.647,3.579 5.282,5.014 10.732,4.486 v 0 c 4.989,-0.481 9.408,-2.516 13.64,-5.018 v 0 c 4.544,-2.686 10.493,-5.906 15.07,-1.6 v 0 l 0.267,0.268 c 4.307,4.577 1.089,10.526 -1.599,15.069 v 0 c -2.501,4.234 -4.537,8.653 -5.018,13.64 v 0 c -0.527,5.45 0.907,7.085 4.485,10.73 v 0 l -0.002,0.535 z"
       transform="matrix(1.3333333,0,0,-1.3333333,0,1113.3333)"
       style="fill:url(#linearGradient79);stroke:none" />
    <path
       id="path80"
       d="m 0,0 38.374,38.375 10e-4,-0.534 c -3.578,-3.646 -5.012,-5.28 -4.484,-10.732 0.48,-4.986 2.516,-9.405 5.017,-13.638 2.689,-4.544 5.906,-10.492 1.6,-15.07 L 40.24,-1.866 C 35.663,-6.173 29.715,-2.953 25.171,-0.268 20.938,2.234 16.519,4.27 11.53,4.751 6.08,5.279 4.445,3.844 0.799,0.266"
       style="fill:none;stroke:#100f0d;stroke-width:1;stroke-linecap:butt;stroke-linejoin:miter;stroke-miterlimit:10;stroke-dasharray:none;stroke-opacity:1"
       transform="matrix(1.3333333,0,0,-1.3333333,497.1224,543.35613)"
       clip-path="url(#clipPath81)" />
    <path
       id="path82"
       d="m 274.531,411.71 c 5.11,-0.049 7.279,-0.191 10.759,-4.418 v 0 c 3.187,-3.867 4.873,-8.431 6.097,-13.193 v 0 c 1.312,-5.113 3.244,-11.596 9.525,-11.786 v 0 h 0.377 c 6.283,0.189 8.214,6.673 9.528,11.785 v 0 c 1.224,4.764 2.91,9.327 6.096,13.195 v 0 c 3.482,4.225 5.65,4.369 10.759,4.417 v 0 l 0.376,0.376 -54.269,10e-4 z"
       transform="matrix(1.3333333,0,0,-1.3333333,0,1113.3333)"
       style="fill:url(#linearGradient82);stroke:none" />
    <path
       id="path83"
       d="m 0,0 h 54.269 l -0.376,-0.377 c -5.11,-0.047 -7.278,-0.191 -10.76,-4.416 -3.186,-3.868 -4.871,-8.432 -6.096,-13.195 -1.313,-5.112 -3.244,-11.596 -9.527,-11.785 h -0.377 c -6.281,0.19 -8.213,6.673 -9.526,11.786 -1.223,4.762 -2.91,9.326 -6.096,13.193 -3.481,4.226 -5.65,4.369 -10.759,4.417"
       style="fill:none;stroke:#100f0d;stroke-width:1;stroke-linecap:butt;stroke-linejoin:miter;stroke-miterlimit:10;stroke-dasharray:none;stroke-opacity:1"
       transform="matrix(1.3333333,0,0,-1.3333333,365.03907,563.8848)"
       clip-path="url(#clipPath84)" />
    <path
       id="path85"
       d="m 190.518,469.114 c 3.58,-3.648 5.011,-5.282 4.484,-10.731 v 0 c -0.481,-4.987 -2.515,-9.406 -5.017,-13.64 v 0 c -2.688,-4.544 -5.907,-10.493 -1.598,-15.07 v 0 l 0.266,-0.267 c 4.576,-4.308 10.527,-1.088 15.071,1.598 v 0 c 4.233,2.502 8.652,4.537 13.639,5.019 v 0 c 5.451,0.526 7.085,-0.905 10.732,-4.485 v 0 l 0.532,10e-4 -38.373,38.374 z"
       transform="matrix(1.3333333,0,0,-1.3333333,0,1113.3333)"
       style="fill:url(#linearGradient85);stroke:none" />
    <path
       id="path86"
       d="m 0,0 38.373,-38.373 -0.532,-0.001 c -3.647,3.579 -5.281,5.011 -10.732,4.485 -4.987,-0.482 -9.406,-2.517 -13.639,-5.019 -4.544,-2.686 -10.494,-5.906 -15.072,-1.598 l -0.265,0.268 c -4.309,4.576 -1.09,10.525 1.597,15.069 2.502,4.233 4.538,8.652 5.018,13.64 0.527,5.449 -0.904,7.084 -4.483,10.731"
       style="fill:none;stroke:#100f0d;stroke-width:1;stroke-linecap:butt;stroke-linejoin:miter;stroke-miterlimit:10;stroke-dasharray:none;stroke-opacity:1"
       transform="matrix(1.3333333,0,0,-1.3333333,253.67187,486.78387)"
       clip-path="url(#clipPath87)" />
    <path
       id="path88"
       d="m 169.424,569.582 c -0.049,-5.109 -0.192,-7.278 -4.418,-10.759 v 0 c -3.866,-3.186 -8.429,-4.873 -13.192,-6.096 v 0 c -5.113,-1.313 -11.598,-3.245 -11.787,-9.526 v 0 -0.377 c 0.189,-6.283 6.674,-8.214 11.786,-9.527 v 0 c 4.764,-1.225 9.327,-2.91 13.195,-6.096 v 0 c 4.224,-3.482 4.369,-5.65 4.416,-10.759 v 0 l 0.377,-0.377 v 54.269 z"
       transform="matrix(1.3333333,0,0,-1.3333333,0,1113.3333)"
       style="fill:url(#linearGradient88);stroke:none" />
    <path
       id="path89"
       d="m 0,0 v -54.269 l -0.377,0.376 c -0.047,5.11 -0.191,7.278 -4.416,10.76 -3.868,3.186 -8.432,4.871 -13.195,6.096 -5.112,1.313 -11.596,3.244 -11.785,9.527 v 0.377 c 0.189,6.281 6.673,8.213 11.786,9.526 4.762,1.223 9.326,2.91 13.192,6.096 4.227,3.481 4.369,5.65 4.418,10.759"
       style="fill:none;stroke:#100f0d;stroke-width:1;stroke-linecap:butt;stroke-linejoin:miter;stroke-miterlimit:10;stroke-dasharray:none;stroke-opacity:1"
       transform="matrix(1.3333333,0,0,-1.3333333,226.40107,352.888)"
       clip-path="url(#clipPath90)" />
    <path
       id="path91"
       d="m 186.389,656.727 -0.268,-0.267 c -4.308,-4.577 -1.088,-10.525 1.597,-15.071 v 0 c 2.502,-4.233 4.538,-8.652 5.021,-13.64 v 0 c 0.524,-5.449 -0.907,-7.084 -4.486,-10.731 v 0 l 0.001,-0.531 38.373,38.373 -0.798,-0.266 c -3.648,-3.578 -5.282,-5.011 -10.732,-4.484 v 0 c -4.987,0.482 -9.406,2.516 -13.639,5.019 v 0 c -2.941,1.739 -6.47,3.701 -9.835,3.701 v 0 c -1.834,0 -3.62,-0.583 -5.234,-2.103"
       transform="matrix(1.3333333,0,0,-1.3333333,0,1113.3333)"
       style="fill:url(#linearGradient91);stroke:none" />
    <path
       id="path92"
       d="m 0,0 -38.373,-38.373 -0.001,0.532 c 3.579,3.646 5.011,5.281 4.485,10.731 -0.482,4.987 -2.517,9.406 -5.019,13.64 -2.686,4.544 -5.906,10.494 -1.598,15.071 l 0.268,0.266 c 4.576,4.308 10.525,1.089 15.069,-1.598 4.233,-2.502 8.652,-4.537 13.64,-5.018 5.449,-0.527 7.084,0.905 10.731,4.484"
       style="fill:none;stroke:#100f0d;stroke-width:1;stroke-linecap:butt;stroke-linejoin:miter;stroke-miterlimit:10;stroke-dasharray:none;stroke-opacity:1"
       transform="matrix(1.3333333,0,0,-1.3333333,302.16933,240.1868)"
       clip-path="url(#clipPath93)" />
    <path
       id="path94"
       d="m 300.539,705.086 c -6.283,-0.189 -8.214,-6.672 -9.528,-11.785 v 0 c -1.224,-4.763 -2.909,-9.327 -6.095,-13.195 v 0 c -3.482,-4.225 -5.65,-4.369 -10.76,-4.416 v 0 l -0.376,-0.377 h 54.269 l -0.752,0.377 c -5.11,0.048 -7.279,0.191 -10.759,4.417 v 0 c -3.187,3.867 -4.873,8.431 -6.097,13.194 v 0 c -1.312,5.113 -3.244,11.595 -9.525,11.785 v 0 z"
       transform="matrix(1.3333333,0,0,-1.3333333,0,1113.3333)"
       style="fill:url(#linearGradient94);stroke:none" />
    <path
       id="path95"
       d="m 0,0 h -54.269 l 0.376,0.377 c 5.11,0.047 7.278,0.191 10.76,4.416 3.186,3.868 4.871,8.432 6.096,13.195 1.313,5.112 3.244,11.596 9.527,11.785 h 0.377 c 6.281,-0.19 8.213,-6.673 9.526,-11.786 1.223,-4.762 2.91,-9.326 6.096,-13.193 3.481,-4.226 5.65,-4.369 10.759,-4.417"
       style="fill:none;stroke:#100f0d;stroke-width:1;stroke-linecap:butt;stroke-linejoin:miter;stroke-miterlimit:10;stroke-dasharray:none;stroke-opacity:1"
       transform="matrix(1.3333333,0,0,-1.3333333,437.3984,212.916)"
       clip-path="url(#clipPath96)" />
    <path
       id="path97"
       d="m 0,0 c 10.946,0 19.821,-8.877 19.821,-19.82 0,-10.951 -8.875,-19.828 -19.821,-19.828 -10.949,0 -19.833,8.877 -19.833,19.828 C -19.833,-8.877 -10.949,0 0,0"
       style="fill:#211d1d;fill-opacity:1;fill-rule:nonzero;stroke:#4565b9;stroke-width:1;stroke-linecap:butt;stroke-linejoin:miter;stroke-miterlimit:10;stroke-dasharray:none;stroke-opacity:1"
       transform="matrix(1.3333333,0,0,-1.3333333,401.60547,35.6816)"
       clip-path="url(#clipPath98)" />
    <text
       id="text98"
       xml:space="preserve"
       transform="matrix(1.3333333,0,0,1.3333333,387.81773,80.357467)"><tspan
         style="font-variant:normal;font-weight:normal;font-stretch:normal;font-size:40.824px;font-family:'Myriad Pro';writing-mode:lr-tb;fill:#ffffff;fill-opacity:1;fill-rule:nonzero;stroke:none"
         x="0"
         y="0"
         id="tspan98">S</tspan></text>
    <path
       id="path99"
       d="m 0,0 c 1.47,-0.98 4.368,-1.796 7.021,-1.796 6.492,0 9.594,3.715 9.594,7.961 0,4.041 -2.327,6.286 -6.981,8.083 -3.796,1.469 -5.47,2.735 -5.47,5.307 0,1.878 1.429,4.123 5.185,4.123 2.49,0 4.327,-0.776 5.184,-1.306 l 0.98,2.898 c -1.184,0.694 -3.266,1.347 -6.042,1.347 -5.348,0 -8.9,-3.184 -8.9,-7.471 0,-3.837 2.777,-6.205 7.267,-7.838 3.715,-1.388 5.184,-2.898 5.184,-5.429 0,-2.776 -2.123,-4.695 -5.755,-4.695 -2.45,0 -4.736,0.775 -6.329,1.796 z"
       style="fill:none;stroke:#ffffff;stroke-width:1;stroke-linecap:butt;stroke-linejoin:miter;stroke-miterlimit:10;stroke-dasharray:none;stroke-opacity:1"
       transform="matrix(1.3333333,0,0,-1.3333333,390.10413,78.5612)"
       clip-path="url(#clipPath100)" />
    <path
       id="path101"
       d="m 0,0 c 10.946,0 19.821,-8.877 19.821,-19.82 0,-10.951 -8.875,-19.828 -19.821,-19.828 -10.949,0 -19.833,8.877 -19.833,19.828 C -19.833,-8.877 -10.949,0 0,0"
       style="fill:#211d1d;fill-opacity:1;fill-rule:nonzero;stroke:#4565b9;stroke-width:1;stroke-linecap:butt;stroke-linejoin:miter;stroke-miterlimit:10;stroke-dasharray:none;stroke-opacity:1"
       transform="matrix(1.3333333,0,0,-1.3333333,73.605467,361.01493)"
       clip-path="url(#clipPath102)" />
    <text
       id="text102"
       xml:space="preserve"
       transform="matrix(1.3333333,0,0,1.3333333,59.817733,405.6908)"><tspan
         style="font-variant:normal;font-weight:normal;font-stretch:normal;font-size:40.824px;font-family:'Myriad Pro';writing-mode:lr-tb;fill:#ffffff;fill-opacity:1;fill-rule:nonzero;stroke:none"
         x="0"
         y="0"
         id="tspan102">S</tspan></text>
    <path
       id="path103"
       d="m 0,0 c 1.47,-0.98 4.368,-1.796 7.021,-1.796 6.492,0 9.594,3.715 9.594,7.961 0,4.041 -2.327,6.286 -6.981,8.083 -3.796,1.469 -5.47,2.735 -5.47,5.307 0,1.878 1.429,4.123 5.185,4.123 2.49,0 4.327,-0.776 5.184,-1.306 l 0.98,2.898 c -1.184,0.694 -3.266,1.347 -6.042,1.347 -5.348,0 -8.9,-3.184 -8.9,-7.471 0,-3.837 2.777,-6.205 7.267,-7.838 3.715,-1.388 5.184,-2.898 5.184,-5.429 0,-2.776 -2.123,-4.695 -5.755,-4.695 -2.45,0 -4.736,0.775 -6.329,1.796 z"
       style="fill:none;stroke:#ffffff;stroke-width:1;stroke-linecap:butt;stroke-linejoin:miter;stroke-miterlimit:10;stroke-dasharray:none;stroke-opacity:1"
       transform="matrix(1.3333333,0,0,-1.3333333,62.104133,403.89453)"
       clip-path="url(#clipPath104)" />
    <path
       id="path105"
       d="m 0,0 c 10.947,0 19.82,-8.877 19.82,-19.821 0,-10.95 -8.873,-19.827 -19.82,-19.827 -10.95,0 -19.834,8.877 -19.834,19.827 C -19.834,-8.877 -10.95,0 0,0"
       style="fill:#ffffff;fill-opacity:1;fill-rule:nonzero;stroke:#211d1d;stroke-width:1;stroke-linecap:butt;stroke-linejoin:miter;stroke-miterlimit:10;stroke-dasharray:none;stroke-opacity:1"
       transform="matrix(1.3333333,0,0,-1.3333333,633.112,589.11267)"
       clip-path="url(#clipPath106)" />
    <text
       id="text106"
       xml:space="preserve"
       transform="matrix(1.3333333,0,0,1.3333333,623.92053,636.45507)"><tspan
         style="font-variant:normal;font-weight:normal;font-stretch:normal;font-size:40.824px;font-family:'Myriad Pro';writing-mode:lr-tb;fill:#211d1d;fill-opacity:1;fill-rule:nonzero;stroke:none"
         x="0"
         y="0"
         id="tspan106">f</tspan></text>
    <path
       id="path107"
       d="m 0,0 v 17.023 h 4.776 v 2.736 H 0 v 1.061 c 0,3.062 0.775,5.716 3.837,5.716 1.062,0 1.756,-0.204 2.287,-0.45 l 0.489,2.777 c -0.694,0.285 -1.755,0.571 -3.061,0.571 -1.674,0 -3.47,-0.531 -4.818,-1.837 -1.632,-1.592 -2.286,-4.123 -2.286,-6.899 v -0.939 h -2.735 v -2.736 h 2.735 L -3.552,0 Z"
       style="fill:none;stroke:#211d1d;stroke-width:1;stroke-linecap:butt;stroke-linejoin:miter;stroke-miterlimit:10;stroke-dasharray:none;stroke-opacity:1"
       transform="matrix(1.3333333,0,0,-1.3333333,633.11973,636.45507)"
       clip-path="url(#clipPath108)" />
    <path
       id="path109"
       d="m 0,0 c 10.947,0 19.82,-8.877 19.82,-19.821 0,-10.95 -8.873,-19.827 -19.82,-19.827 -10.95,0 -19.834,8.877 -19.834,19.827 C -19.834,-8.877 -10.95,0 0,0"
       style="fill:#ffffff;fill-opacity:1;fill-rule:nonzero;stroke:#211d1d;stroke-width:1;stroke-linecap:butt;stroke-linejoin:miter;stroke-miterlimit:10;stroke-dasharray:none;stroke-opacity:1"
       transform="matrix(1.3333333,0,0,-1.3333333,398.44533,687.77933)"
       clip-path="url(#clipPath110)" />
    <text
       id="text110"
       xml:space="preserve"
       transform="matrix(1.3333333,0,0,1.3333333,389.25387,735.12173)"><tspan
         style="font-variant:normal;font-weight:normal;font-stretch:normal;font-size:40.824px;font-family:'Myriad Pro';writing-mode:lr-tb;fill:#211d1d;fill-opacity:1;fill-rule:nonzero;stroke:none"
         x="0"
         y="0"
         id="tspan110">f</tspan></text>
    <path
       id="path111"
       d="m 0,0 v 17.023 h 4.776 v 2.736 H 0 v 1.061 c 0,3.062 0.775,5.716 3.837,5.716 1.062,0 1.756,-0.204 2.287,-0.45 l 0.489,2.777 c -0.694,0.285 -1.755,0.571 -3.061,0.571 -1.674,0 -3.47,-0.531 -4.818,-1.837 -1.632,-1.592 -2.286,-4.123 -2.286,-6.899 v -0.939 h -2.735 v -2.736 h 2.735 L -3.552,0 Z"
       style="fill:none;stroke:#211d1d;stroke-width:1;stroke-linecap:butt;stroke-linejoin:miter;stroke-miterlimit:10;stroke-dasharray:none;stroke-opacity:1"
       transform="matrix(1.3333333,0,0,-1.3333333,398.45307,735.12173)"
       clip-path="url(#clipPath112)" />
    <path
       id="path113"
       d="m 348.539,105.086 c -6.283,-0.188 -8.214,-6.673 -9.527,-11.785 v 0 c -1.225,-4.763 -2.911,-9.326 -6.096,-13.196 v 0 c -3.483,-4.224 -5.651,-4.367 -10.76,-4.416 v 0 l -0.375,-0.375 54.268,-10e-4 -0.752,0.376 c -5.11,0.05 -7.279,0.192 -10.759,4.418 v 0 c -3.186,3.868 -4.873,8.431 -6.097,13.194 v 0 c -1.312,5.112 -3.243,11.596 -9.525,11.785 v 0 z"
       transform="matrix(1.3333333,0,0,-1.3333333,0,1113.3333)"
       style="fill:url(#linearGradient113);stroke:none" />
    <path
       id="path114"
       d="m 0,0 -54.269,0.001 0.376,0.376 c 5.11,0.048 7.278,0.191 10.76,4.416 3.186,3.869 4.871,8.432 6.096,13.195 1.313,5.113 3.244,11.597 9.527,11.785 h 0.377 c 6.281,-0.189 8.213,-6.672 9.526,-11.785 1.223,-4.762 2.91,-9.326 6.096,-13.193 3.481,-4.227 5.65,-4.369 10.759,-4.418"
       style="fill:none;stroke:#100f0d;stroke-width:1;stroke-linecap:butt;stroke-linejoin:miter;stroke-miterlimit:10;stroke-dasharray:none;stroke-opacity:1"
       transform="matrix(1.3333333,0,0,-1.3333333,501.3984,1012.9167)"
       clip-path="url(#clipPath115)" />
    <path
       id="path116"
       d="m 0,0 c 10.947,0 19.82,-8.876 19.82,-19.821 0,-10.95 -8.873,-19.827 -19.82,-19.827 -10.95,0 -19.834,8.877 -19.834,19.827 C -19.834,-8.876 -10.95,0 0,0"
       style="fill:#ffffff;fill-opacity:1;fill-rule:nonzero;stroke:#211d1d;stroke-width:1;stroke-linecap:butt;stroke-linejoin:miter;stroke-miterlimit:10;stroke-dasharray:none;stroke-opacity:1"
       transform="matrix(1.3333333,0,0,-1.3333333,498.44533,910.446)"
       clip-path="url(#clipPath117)" />
    <text
       id="text117"
       xml:space="preserve"
       transform="matrix(1.3333333,0,0,1.3333333,489.25387,957.7884)"><tspan
         style="font-variant:normal;font-weight:normal;font-stretch:normal;font-size:40.824px;font-family:'Myriad Pro';writing-mode:lr-tb;fill:#211d1d;fill-opacity:1;fill-rule:nonzero;stroke:none"
         x="0"
         y="0"
         id="tspan117">f</tspan></text>
    <path
       id="path118"
       d="m 0,0 v 17.023 h 4.776 v 2.736 H 0 v 1.061 c 0,3.062 0.775,5.716 3.837,5.716 1.062,0 1.756,-0.204 2.287,-0.45 l 0.489,2.777 c -0.694,0.285 -1.755,0.571 -3.061,0.571 -1.674,0 -3.47,-0.531 -4.818,-1.837 -1.632,-1.592 -2.286,-4.123 -2.286,-6.899 v -0.939 h -2.735 v -2.736 h 2.735 L -3.552,0 Z"
       style="fill:none;stroke:#211d1d;stroke-width:1;stroke-linecap:butt;stroke-linejoin:miter;stroke-miterlimit:10;stroke-dasharray:none;stroke-opacity:1"
       transform="matrix(1.3333333,0,0,-1.3333333,498.45307,957.7884)"
       clip-path="url(#clipPath119)" />
  </g>
</svg>
